<svg height="400" viewBox="0 0 400 400" width="400" xmlns="http://www.w3.org/2000/svg"><g fill="none"><circle cx="200" cy="200" fill="#2bb24c" r="200"/><g transform="translate(50 56)"><path d="m147.337907 20.5233218 2.477474-.0165435c33.242634-.2968361 65.842525 9.1615406 93.764196 27.2042963-18.021931 11.6504413-32.887273 27.5718407-43.275393 46.349747-.305556.4305193-.562975.8932509-.76764 1.379896l-.113006.2258012c-.138516.2681784-.2686.5395193-.405008.8087518-2.169181 4.0068774-6.359752 6.7348384-11.250215 9.0384884l-.777802.360333c-.130539.059509-.261515.118756-.392902.177755l-.793084.351156-.801826.345973-.809413.341537-1.225815.505624-1.236382.499848-3.271878 1.305018-1.072958.431598-1.280477.523533-.636078.264883-.947389.402209-.937689.409121-.618832.277174-.613162.281124-.606952.285425-.600197.290077c-.099439.048754-.198575.097715-.297396.146893l-.589047.297714-.580936.303244-.572282.309125c-.094629.05203-.188874.104321-.282725.156878l-.558283.318604c-.092227.053655-.184038.10759-.27542.161815l-.543062.328875c-.268869.166229-.533679.33519-.794124.507081l-.514979.347745c-3.986997 2.75552-6.852662 6.262365-7.422832 11.279861-.942198 8.288705 4.245408 13.535499 10.796649 18.77975l.881161.699486.894812.701056 3.203098 2.489181.925173.727937c.154252.122143.308498.244718.462685.367759l.923996.744102c5.995945 4.876456 11.74327 10.562701 14.139375 19.037253 1.74281 6.572646 4.106833 12.964624 7.060134 19.08958l.128836.223441.157204.255127.186696.283037.217316.30717.162446.216322.176889.224251.191666.23106.206777.236751.222223.241323c.038342.040539.077342.081222.117007.122026l.246016.246082.262296.247856c.045091.041395.090874.082818.137357.124244l.287341.24842c2.169514 1.819361 5.719583 3.556195 11.242677 3.224744 3.370796-.202247 6.437625-1.698722 9.263592-3.342881l.647899-.381521 2.509531-1.515891.607728-.360769c.100657-.059087.201-.117609.301034-.175501l.596517-.339279c2.569055-1.432946 4.933655-2.352109 7.156908-1.610943 6.620127 2.20678 4.093515 26.911873-9.431363 36.252999 6.180244 5.901089 12.879757 11.233166 20.017242 15.931526-27.928494 18.057786-60.541411 27.52453-93.79793 27.227277-13.488439.005006-26.934672-1.506669-40.085293-4.506535l-.09635.012228c-1.806814-.186005-5.275841 1.610147-9.6890526 4.309584l-1.122558.693054-1.1594059.726944-1.1937607.757089-1.8496024 1.183961-3.8806133 2.49554-2.0141821 1.286293-1.3644359.863212c-.2286761.143988-.4579525.287982-.6877774.431906l-1.3851153.862072c-.231811.143329-.4640665.286431-.6967147.429229l-1.4001852.852502c-11.7005481 7.063297-24.1229854 12.97429-30.7747376 7.97757-4.0289632-3.026149-2.4704805-8.922451.184992-15.649284l.4277467-1.068736.4420512-1.080755 1.6031147-3.851541.4578111-1.112765.450511-1.114971c3.4158959-8.552014 5.841846-17.141274-.6876516-22.149748l-.4824685-.355259c-33.46116-22.64695-54.8117035-57.004568-54.8117035-95.477417 0-67.5160845 65.7397575-122.3773348 147.337907-123.4678082z" fill="#123873"/><path d="m243.578945 47.7110746 1.021223.6826245c33.578215 22.6456266 55.030806 57.0484559 55.030806 95.5982739 0 38.536877-21.437713 72.930072-54.997014 95.575098l-1.020649.682609-.970571-.644607c-6.774887-4.539663-13.147347-9.654061-19.046671-15.286919 13.524878-9.341126 16.05149-34.046219 9.431363-36.252999-2.000928-.667049-4.116347.010767-6.392262 1.197619l-.253542.133925-.511104.279399-.596517.339279-.301034.175501-.607728.360769-2.509531 1.515891-.647899.381521-.682889.391175c-2.635716 1.484137-5.479571 2.765638-8.580703 2.951706-5.397569.323918-8.910777-1.327504-11.092609-3.100848l-.150068-.123896-.287341-.24842-.137357-.124244-.262296-.247856-.246016-.246082-.117007-.122026-.222223-.241323-.206777-.236751-.191666-.23106-.176889-.224251-.162446-.216322-.217316-.30717-.186696-.283037-.157204-.255127-.128836-.223441c-2.953301-6.124956-5.317324-12.516934-7.060134-19.08958-1.728185-6.11225-5.199668-10.774028-9.250379-14.727657l-.329683-.319028-.632896-.597916-.319403-.295064-.644123-.582718-.650426-.573338-.655782-.564562-.660193-.55639-.663657-.54882-.332833-.27176-.923996-.744102-.462685-.367759-.925173-.727937-3.203098-2.489181-.894812-.701056-.881161-.699486-.846385-.684297-.554503-.456954-.545888-.458077-.536577-.459644-.526569-.461656-.515865-.464111-.504464-.467011-.360527-.342876-.353815-.344829c-4.087632-4.035073-6.749571-8.50412-6.052056-14.640295.557211-4.903462 3.306764-8.364158 7.152743-11.090811l.270089-.18905.514979-.347745.393903-.255664.400221-.251417.543062-.328875.27542-.161815.558283-.318604.282725-.156878.572282-.309125.580936-.303244.589047-.297714.897593-.43697.606952-.285425.613162-.281124.618832-.277174.937689-.409121.947389-.402209.636078-.264883 1.280477-.523533 1.072958-.431598 3.271878-1.305018 1.236382-.499848 1.225815-.505624.809413-.341537.801826-.345973.793084-.351156.392902-.177755.777802-.360333.550576-.262649.544171-.26655c4.416742-2.193503 8.149999-4.804817 10.155468-8.5092894l.201713-.4047712.316301-.6297818c.204665-.4866451.462084-.9493767.76764-1.379896 10.251434-18.5308285 24.862428-34.279827 42.565012-45.8876461zm-101.81503 144.4178694c.670868 5.542564-3.930753 10.656929-10.277643 11.425412-6.346889.768272-12.035982-3.10134-12.706849-8.644115-.670868-5.542776 3.930542-10.657141 10.277642-11.425413s12.035982 3.101551 12.70685 8.644116zm-52.8026847-106.5836303c9.0245499-.001198 17.8323637 20.7618143 24.2389407 40.8357743l.464457 1.467285c.153369.488478.305279.976234.455696 1.462958l.446745 1.456764c.147402.484348.29328.967352.437603 1.448701l.428273 1.438771c.141181.477728.280775.95349.41875 1.426974l.409039 1.413308c.067353.234309.134294.467971.200818.700946l.394115 1.389309c.064842.230075.129259.459387.193248.687896l.596341 2.150754.288218 1.054839.556055 2.06393.528247 1.99671.499679 1.922022.47035 1.839864.44026 1.750237.40941 1.65314.554607 2.281317.328957 1.377723.430363 1.833178.452088 1.969333.586029 2.631617.047764.224671.088757.445327.040941.220571.07487.436744.065345.430601.055608.424118.045655.417298.035491.410139.010715.152961.016944.302642c.002321.05007.00439.099952.006205.149644l.007821.295845c.003158.195674.001804.388206-.003041.577401l-.011046.281266c-.035666.696787-.132013 1.345285-.295507 1.935251l-.068994.23284c-.786561 2.488092-2.850167 3.851435-6.716905 3.256552-.500884-.077059-1.125365-.38056-1.854778-.882462l-.261767-.185334-.270299-.201537-.278648-.217465c-.141381-.112669-.285825-.231208-.433229-.355464l-.298724-.256087c-.050435-.043937-.101191-.088497-.152265-.133675l-.310223-.278438-.31766-.292998c-.053553-.05003-.107409-.100657-.161563-.151872l-.328475-.314321c-.055333-.053551-.110956-.10768-.166867-.162381l-.33888-.335029-.345588-.348492c-.058147-.059189-.116566-.118927-.175253-.179209l-.355309-.368172-.361561-.38095-.367632-.393454-.37352-.405684-.57092-.630858-.387441-.43506-.392692-.446331-.598481-.69003-.405018-.473311-.409629-.483622-.414058-.493661-.418306-.503425-.422369-.512915-.640777-.786568-.431733-.535443-.43516-.543974-.438403-.552232-.441465-.560215-.667539-.854693-.899066-1.164976-.680262-.891573-.684689-.905837-.6885009-.919178-.691697-.931593-1.0772774-1.466713c-1.4394864-1.972499-2.8893998-4.009464-4.3252773-6.074142l-1.0738941-1.553131-1.0663373-1.560076-1.0564871-1.563578-1.0443435-1.563632c-1.2104251-1.822931-2.3913746-3.638938-3.5264604-5.423401l-.9613164-1.52124-.9365592-1.502344-.729881-1.185954c-.3604167-.589109-.7139009-1.172193-1.0597921-1.748262l-.8485271-1.424981-.3856641-.655994-.3779946-.648481-.5520968-.95786-.3577916-.628151-.5206899-.925709-.3361186-.605612-.3270377-.595979-.3177217-.585991-.3081704-.575651-.298384-.564957-.4287119-.826611-.2728888-.536676-.2622792-.524746-.373011-.763974-.2347259-.493372-.223293-.480205-.2116249-.466683c-.0342854-.076635-.0680748-.152691-.1013634-.228161l-.1936817-.44574-.1814255-.431334c-.0584064-.141339-.1147308-.280217-.1689342-.416577l-.1562077-.401466c-5.978987-15.7219592.2966408-29.9381558 14.5375047-29.9413183z" fill="#fff"/><path d="m229.695085 101.04831c4.975184-9.5341919 13.408818-14.9669146 18.837049-12.1343255 3.980702 2.0772319 5.239731 8.0225209 3.666075 14.8056305l-.150866.61887c-.581812 2.277034-1.47874 4.636957-2.694896 6.967538-.386959.741548-.794839 1.458285-1.2206 2.148251l-.369245.584798c-5.042012 7.805034-12.361797 11.950607-17.247204 9.401276-5.428231-2.832589-5.795498-12.857846-.820313-22.392038z" fill="#123873"/></g></g></svg>