<svg xmlns="http://www.w3.org/2000/svg" width="600" height="90"><style>@media (prefers-color-scheme:dark){.a{fill:#fff}}</style><path fill="#364FFF" d="M128 3.375v73.159a3.37 3.37 0 0 1-3.368 3.375 3.36 3.36 0 0 1-1.94-.615l-12.6-16.888a3.364 3.364 0 0 0-4.57-.785l-.15.107L69.39 88.769a3.364 3.364 0 0 1-4.715-.675A3.38 3.38 0 0 1 64 86.07V44.722L122.61.675a3.364 3.364 0 0 1 4.716.675A3.38 3.38 0 0 1 128 3.375"/><path fill="#37D8FF" d="M0 86.07V12.91a3.37 3.37 0 0 1 3.368-3.375c.695 0 1.372.215 1.94.616l12.6 16.887a3.364 3.364 0 0 0 4.57.786l.15-.107L58.61.675a3.364 3.364 0 0 1 4.715.675A3.38 3.38 0 0 1 64 3.375v41.347L5.39 88.77a3.364 3.364 0 0 1-4.716-.675A3.38 3.38 0 0 1 0 86.07"/><path class="a" fill="#111A39" d="M202.39 77.537V15.92H192v61.617zm21.808 0V42.983c0-11.115 7.49-18.485 18.847-18.485 10.995 0 18.002 7.25 18.002 18.243v20.781c0 9.061 5.195 14.015 14.498 14.015h3.142V67.509h-1.088c-3.745 0-6.161-2.416-6.161-6.162V39.48c0-15.102-10.028-25.009-25.01-25.009-9.665 0-17.518 4.108-22.23 11.357V15.92h-10.39v61.617zm87.14 0 16.31-36.729c4.228-9.786 5.557-18.001 4.108-24.888h-10.632c1.45 6.403.12 13.894-3.504 22.714l-11.6 26.459-20.78-49.173H273.4l27.063 61.617zm57.78 1.45c18.606 0 32.742-13.894 32.742-32.259 0-18.364-14.136-32.258-32.742-32.258-18.727 0-32.862 13.894-32.862 32.258s14.135 32.259 32.862 32.259m0-10.028c-12.686 0-22.11-9.545-22.11-22.23s9.424-22.23 22.11-22.23c12.565 0 21.989 9.544 21.989 22.23s-9.424 22.23-21.989 22.23m43.827 8.578 18.243-24.647 10.27 13.17c5.195 7.852 11.598 11.477 19.089 11.477h4.228V67.509h-3.02c-4.108 0-8.336-2.416-11.598-6.645l-11.84-14.256 23.438-30.688h-12.686l-17.76 23.801-17.88-23.801H400.62l23.439 30.688-23.801 30.929zm85.81 1.45c14.498 0 26.46-7.974 31.292-19.814h-11.599c-3.503 6.161-10.994 10.27-19.572 10.27-11.72 0-20.297-7.492-22.11-18.365h54.127c.12-1.208.241-3.141.241-4.35 0-18.364-14.015-32.258-32.741-32.258-18.606 0-32.742 13.894-32.742 32.258s14.136 32.259 33.104 32.259m21.264-37.212h-43.132c2.054-10.511 10.511-17.76 21.506-17.76 10.994 0 19.693 7.249 21.626 17.76m25.13 35.762 9.545-50.14 27.787 3.263c-4.832 8.457-7.611 16.793-7.611 24.405 0 13.894 7.853 22.472 21.868 22.472H600V67.509h-2.416c-7.491 0-11.961-5.195-11.961-13.532s4.228-18.122 11.719-29.116v-2.538l-41.682-4.712c-.12-4.47-3.262-7.611-7.853-7.611-4.47 0-7.49 3.02-7.49 7.37 0 3.383 1.812 6.403 4.832 7.732l-10.27 52.435z"/></svg>